<?xml version="1.0" standalone="no"?>
<!DOCTYPE svg PUBLIC "-//W3C//DTD SVG 20010904//EN"
 "http://www.w3.org/TR/2001/REC-SVG-20010904/DTD/svg10.dtd">
<svg version="1.0" xmlns="http://www.w3.org/2000/svg"
 width="1024.000000pt" height="1024.000000pt" viewBox="0 0 1024.000000 1024.000000"
 preserveAspectRatio="xMidYMid meet">

<g transform="translate(0.000000,1024.000000) scale(0.100000,-0.100000)"
fill="#000000" stroke="none">
<path d="M5118 7673 l-3 -2568 -2557 -3 -2558 -2 0 -2550 0 -2550 2560 0 2560
0 0 2550 0 2550 2560 0 2560 0 0 2570 0 2570 -2560 0 -2560 0 -2 -2567z m3723
1587 c72 -13 127 -53 158 -115 l26 -49 0 -1396 c0 -767 -3 -1407 -7 -1422 -12
-42 -58 -89 -113 -114 l-50 -24 -1171 0 c-849 0 -1180 3 -1205 11 -54 18 -95
55 -120 106 l-24 48 0 1400 0 1400 25 45 c31 54 90 97 150 109 65 13 2264 14
2331 1z m-2224 -3297 c43 -96 47 -113 30 -113 -8 0 -20 7 -27 15 -17 20 -80
19 -95 -1 -6 -9 -19 -15 -28 -13 -13 3 -9 18 25 92 23 48 46 87 53 87 7 0 26
-30 42 -67z m218 55 c14 -6 25 -17 25 -24 0 -17 -28 -26 -50 -14 -26 14 -49 2
-57 -28 -10 -39 8 -57 55 -54 46 3 59 -9 36 -32 -23 -24 -78 -20 -111 8 -22
19 -28 32 -28 66 0 70 63 109 130 78z m218 -2 c33 -25 21 -42 -30 -42 -45 1
-48 -1 -51 -27 -5 -43 14 -59 61 -52 34 6 38 5 35 -11 -5 -28 -44 -44 -81 -33
-43 12 -58 30 -64 77 -5 36 -2 45 25 72 33 33 74 39 105 16z m217 -6 c0 -17
-7 -20 -40 -20 -29 0 -40 -4 -40 -15 0 -10 11 -15 35 -15 28 0 35 -4 35 -20 0
-16 -7 -20 -35 -20 -28 0 -35 -4 -35 -20 0 -18 4 -20 40 -14 36 6 40 5 40 -15
0 -19 -5 -21 -65 -21 l-65 0 0 90 0 90 65 0 c58 0 65 -2 65 -20z m171 1 c27
-22 20 -28 -36 -33 l-30 -3 40 -20 c69 -34 57 -105 -18 -105 -36 0 -67 16 -67
35 0 12 10 13 45 8 54 -7 60 8 9 26 -47 17 -63 51 -40 86 20 31 63 33 97 6z
m180 9 c10 -6 19 -17 19 -26 0 -12 -8 -13 -35 -8 -37 7 -50 -10 -17 -20 29 -9
62 -45 62 -66 0 -28 -28 -50 -63 -50 -35 1 -67 20 -67 40 0 11 15 11 59 -1 31
-9 20 22 -14 38 -43 21 -55 55 -30 83 20 22 56 26 86 10z m238 -19 c63 -59 27
-151 -59 -151 -56 0 -90 34 -90 89 0 32 6 44 31 65 41 34 79 33 118 -3z m205
8 c30 -24 33 -45 10 -77 -15 -21 -15 -25 0 -41 23 -25 20 -43 -6 -39 -13 2
-29 15 -36 31 -18 37 -42 35 -42 -3 0 -23 -4 -30 -20 -30 -19 0 -20 7 -20 90
l0 90 44 0 c29 0 52 -7 70 -21z m130 -10 c3 -17 6 -58 6 -90 0 -56 -1 -59 -25
-59 -25 0 -25 1 -25 83 0 46 3 87 7 90 15 16 31 5 37 -24z m182 5 c20 -19 24
-31 19 -52 -4 -15 -11 -30 -17 -33 -7 -5 -5 -15 6 -30 21 -30 20 -39 -2 -39
-10 0 -28 14 -40 30 -13 17 -27 30 -32 30 -6 0 -10 -13 -10 -30 0 -23 -4 -30
-20 -30 -19 0 -20 7 -20 90 l0 90 45 0 c36 0 52 -6 71 -26z m124 -62 c0 -93
-3 -104 -26 -95 -11 4 -14 27 -14 94 0 82 1 89 20 89 18 0 20 -7 20 -88z m190
68 c0 -17 -7 -20 -40 -20 -29 0 -40 -4 -40 -15 0 -10 11 -15 35 -15 29 0 35
-4 35 -20 0 -12 -6 -20 -12 -19 -39 5 -58 -2 -58 -21 0 -18 4 -20 40 -14 36 6
40 5 40 -15 0 -19 -5 -21 -62 -21 l-63 0 3 90 3 90 60 0 c52 0 59 -2 59 -20z
m178 4 c30 -21 17 -37 -24 -31 -42 7 -44 -6 -4 -23 74 -31 62 -110 -16 -110
-43 0 -74 15 -74 36 0 12 8 14 45 8 38 -5 45 -4 45 10 0 9 -7 16 -15 16 -35 0
-65 23 -65 51 0 54 59 77 108 43z m-7150 -1726 c30 -30 11 -55 -149 -209 -89
-85 -170 -158 -180 -163 -20 -9 -52 9 -46 27 5 16 341 356 353 356 5 1 15 -4
22 -11z m1850 -164 l177 -175 -24 -19 c-13 -12 -29 -17 -36 -12 -31 17 -334
314 -340 333 -7 22 10 49 32 49 8 0 94 -79 191 -176z m-1610 110 c47 -33 33
-53 -178 -261 -111 -109 -212 -202 -226 -208 -27 -10 -50 -1 -68 29 -9 14 23
50 212 236 122 121 226 220 230 220 4 0 18 -7 30 -16z m1420 -208 c212 -211
215 -215 200 -238 -8 -13 -27 -24 -42 -26 -23 -3 -53 22 -209 174 -100 97
-194 190 -209 206 -44 45 -33 98 20 98 17 0 80 -56 240 -214z m-2009 173 c29
-53 -18 -110 -73 -89 -47 17 -54 61 -17 103 22 26 72 19 90 -14z m2415 10 c15
-12 26 -30 26 -45 0 -31 -33 -64 -65 -64 -30 0 -65 36 -65 66 0 23 42 64 65
64 7 0 24 -9 39 -21z m-807 -41 c21 -18 40 -35 43 -38 3 -3 57 -54 120 -115
63 -60 158 -150 210 -200 52 -50 120 -112 152 -138 94 -79 88 -35 88 -691 l0
-576 -45 0 -45 0 -2 478 c-1 262 -2 518 -3 568 l-1 91 -95 89 c-52 49 -157
149 -234 224 -77 75 -168 161 -202 193 l-62 57 -361 0 c-246 0 -368 -4 -382
-11 -24 -13 -568 -534 -582 -558 -5 -9 -7 -245 -3 -573 l6 -558 -49 0 -50 0 0
583 c0 536 2 584 18 608 28 41 578 565 617 587 14 8 139 11 422 12 l402 0 38
-32z m-103 -141 c12 -9 17 -23 14 -42 l-3 -30 -330 -3 c-181 -1 -340 0 -352 3
-27 6 -31 45 -7 69 13 14 58 16 338 16 248 0 326 -3 340 -13z m-1501 -169 c17
-22 19 -33 11 -55 -22 -63 -104 -69 -129 -11 -14 34 -11 53 14 81 23 27 79 19
104 -15z m917 -18 c0 -57 -10 -66 -65 -56 -34 7 -35 9 -35 50 0 23 3 46 7 49
3 4 26 7 50 7 l43 0 0 -50z m198 3 c3 -34 -1 -44 -18 -53 -12 -6 -33 -10 -48
-8 -25 3 -27 7 -30 56 l-3 53 48 -3 48 -3 3 -42z m182 -2 c0 -46 -2 -49 -30
-54 -48 -10 -60 0 -60 47 0 52 4 56 52 56 l38 0 0 -49z m205 -1 c0 -44 -1 -45
-35 -50 -61 -10 -70 -3 -70 52 l0 49 53 -3 52 -3 0 -45z m920 25 c48 -47 19
-115 -49 -115 -60 0 -89 77 -46 120 27 27 66 25 95 -5z m-1721 -67 c-14 -23
-150 -148 -161 -148 -6 0 -18 8 -27 19 -16 18 -16 20 6 44 13 14 52 51 87 82
63 57 63 57 83 37 14 -13 17 -25 12 -34z m1041 -22 c79 -75 88 -97 53 -120
-15 -9 -31 2 -100 71 -81 81 -82 82 -63 103 10 11 21 20 25 20 4 0 42 -33 85
-74z m-196 -115 c65 -13 121 -57 154 -120 l27 -55 0 -365 c0 -209 -4 -381 -10
-400 -15 -52 -56 -105 -103 -132 l-42 -24 -385 -3 c-256 -2 -400 1 -429 8 -60
15 -107 54 -139 114 l-27 51 0 380 c0 373 0 381 22 421 28 53 94 110 141 122
45 12 730 14 791 3z m-1564 -116 c31 -30 32 -62 3 -92 -26 -28 -61 -30 -88 -3
-29 29 -26 74 6 99 34 27 50 26 79 -4z m2433 -2 c37 -32 33 -87 -8 -108 -39
-20 -47 -19 -75 10 -31 30 -32 62 -3 92 26 27 58 30 86 6z m-1942 -57 c3 -14
3 -30 -1 -35 -3 -7 -45 -11 -101 -11 -86 0 -94 2 -94 19 0 47 8 51 101 51 86
0 89 -1 95 -24z m1562 12 c19 -19 14 -56 -8 -63 -11 -4 -56 -3 -100 1 -79 6
-80 7 -80 34 0 14 3 30 7 33 12 12 168 8 181 -5z m-1589 -154 c29 -6 32 -10
29 -38 l-3 -31 -97 -3 -98 -3 0 35 c0 32 3 35 33 39 57 7 104 7 136 1z m1599
-36 c5 -38 -28 -49 -123 -41 l-75 6 0 34 0 34 98 -3 97 -3 3 -27z m-1578 -142
c6 -8 10 -25 8 -38 -3 -22 -7 -23 -100 -26 l-98 -3 0 35 c0 41 6 43 106 45 51
1 75 -3 84 -13z m1555 4 c21 -8 26 -16 23 -37 -4 -34 -32 -42 -127 -35 l-71 5
0 33 0 33 63 4 c34 2 67 4 74 5 6 1 24 -3 38 -8z m-2035 -122 c58 -63 -29
-149 -90 -88 -26 26 -25 51 1 84 25 32 61 34 89 4z m2424 1 c35 -28 33 -73 -5
-102 -23 -16 -30 -17 -50 -7 -31 17 -39 29 -39 62 0 17 9 34 26 47 33 26 35
26 68 0z m-1936 -70 c5 -41 -17 -50 -110 -47 -78 3 -83 4 -86 26 -7 49 1 53
100 50 92 -3 93 -3 96 -29z m1560 22 c8 -5 12 -21 10 -37 l-3 -29 -100 0 c-97
0 -100 1 -103 23 -6 42 14 52 102 52 44 0 87 -4 94 -9z m-1574 -157 c16 -6 21
-30 10 -58 -5 -13 -24 -16 -100 -16 l-94 0 0 34 c0 24 5 36 18 39 26 7 148 8
166 1z m1555 0 c23 -5 31 -12 31 -28 -1 -48 -15 -53 -142 -48 l-58 2 0 35 0
34 58 4 c31 2 62 4 68 5 6 1 26 -1 43 -4z m-1558 -164 c21 -12 25 -40 7 -58
-7 -7 -44 -12 -94 -12 -86 0 -94 4 -94 50 0 17 10 20 78 23 42 1 78 4 80 5 2
1 12 -3 23 -8z m1583 -16 c9 -23 -1 -51 -21 -58 -8 -4 -51 -3 -94 0 l-79 7 0
33 0 34 94 0 c78 0 95 -3 100 -16z m-1412 -171 c38 -37 68 -72 68 -78 0 -6 -6
-20 -14 -31 -14 -18 -18 -15 -90 56 -78 77 -85 87 -64 108 20 20 30 15 100
-55z m1178 37 c8 -14 -5 -31 -64 -89 -41 -39 -79 -71 -85 -71 -6 0 -16 11 -23
25 -10 22 -6 29 63 93 73 69 91 76 109 42z m-1812 -23 c29 -27 28 -62 -3 -92
-30 -30 -54 -31 -89 -4 -39 31 -37 83 5 108 35 21 52 19 87 -12z m2432 3 c43
-43 7 -120 -56 -120 -33 0 -64 34 -64 70 0 17 9 39 20 50 11 11 33 20 50 20
17 0 39 -9 50 -20z m-1886 -137 c96 -93 117 -119 109 -132 -23 -36 -47 -22
-157 88 l-109 110 17 25 c9 14 18 26 19 26 2 0 56 -52 121 -117z m1387 86 c10
-20 1 -32 -97 -130 -60 -60 -116 -109 -125 -109 -19 0 -45 27 -35 38 53 59
224 222 233 222 7 0 17 -10 24 -21z m-1063 -111 l-3 -93 -32 -3 -33 -3 0 95 0
96 35 0 36 0 -3 -92z m163 55 c2 -21 2 -64 1 -96 l-4 -58 -31 3 -32 3 -3 93
-3 92 35 0 c32 0 34 -2 37 -37z m163 21 c3 -9 6 -44 6 -79 0 -82 -6 -95 -40
-95 -28 0 -28 1 -35 74 -9 94 -2 116 35 116 16 0 30 -7 34 -16z m161 -79 l0
-90 -32 -3 -33 -3 0 96 0 96 33 -3 32 -3 0 -90z m165 76 c5 -11 10 -49 10 -84
0 -71 -12 -91 -52 -85 -22 3 -23 8 -26 96 l-3 92 30 0 c20 0 34 -7 41 -19z
m-1120 -102 c16 -28 5 -49 -24 -49 -26 0 -40 22 -31 51 8 25 42 24 55 -2z
m1585 -19 c0 -20 -6 -26 -27 -28 -24 -3 -28 0 -28 21 0 30 9 39 35 35 14 -2
20 -10 20 -28z m-1775 -20 c39 -39 14 -100 -41 -100 -29 0 -59 31 -59 61 0 19
45 59 66 59 8 0 23 -9 34 -20z m1975 8 c32 -15 42 -51 22 -82 -22 -33 -52 -38
-82 -14 -37 29 -33 72 10 96 25 14 20 14 50 0z m-715 -243 l0 -55 -725 -2
c-632 -3 -727 -5 -735 -18 -5 -8 -10 -83 -10 -167 0 -83 -3 -158 -6 -167 -4
-11 -19 -16 -50 -16 l-44 0 0 206 0 206 34 34 34 34 751 0 751 0 0 -55z m879
41 c55 -29 62 -61 59 -271 l-3 -190 -40 0 -40 0 -5 168 c-5 152 -7 170 -24
183 -16 11 -85 14 -378 14 l-358 0 0 55 0 55 380 0 c310 0 386 -3 409 -14z
m-1529 -265 c0 -61 -3 -62 -189 -61 -75 1 -142 1 -148 0 -10 0 -13 -55 -13
-240 l0 -240 210 0 210 0 0 28 c0 40 42 124 82 164 104 103 279 104 389 1 47
-44 89 -125 89 -173 0 -19 8 -20 200 -20 l200 0 0 239 0 238 -52 6 c-29 3
-116 3 -193 1 l-140 -3 -3 -71 -3 -70 -282 2 -282 3 -3 28 c-3 22 1 27 17 27
20 0 21 6 21 90 l0 90 29 0 29 0 8 -90 7 -90 38 0 39 0 0 90 0 90 35 0 35 0 0
-90 0 -90 40 0 39 0 3 88 3 87 33 3 32 3 0 -90 0 -91 45 0 45 0 0 79 c0 116
-13 111 301 111 l257 0 6 -22 c3 -13 6 -160 6 -328 0 -261 -2 -309 -16 -328
-15 -22 -18 -22 -270 -22 l-254 0 -9 -23 c-29 -74 -121 -137 -214 -144 -110
-9 -195 32 -259 122 l-32 45 -250 0 c-218 0 -252 2 -268 17 -17 15 -18 39 -18
343 0 180 3 330 7 333 3 4 105 7 225 7 l218 0 0 -49z m-537 -12 c6 -9 7 -24 4
-33 -5 -13 -22 -16 -96 -16 -49 0 -92 4 -95 9 -4 5 -2 21 4 36 10 25 11 26 91
23 62 -2 84 -7 92 -19z m1908 0 l22 -22 -27 -14 c-16 -9 -49 -13 -84 -11 -53
3 -57 5 -60 30 -4 30 7 35 81 37 36 1 52 -4 68 -20z m-1917 -135 c26 -10 21
-60 -6 -68 -47 -12 -146 -6 -162 10 -21 20 -20 41 2 53 19 11 141 15 166 5z
m1952 -20 c9 -37 -7 -44 -108 -44 l-88 0 0 28 c0 16 3 32 7 35 3 4 46 7 94 7
87 0 89 0 95 -26z m-1938 -160 c3 -29 1 -32 -35 -36 -21 -2 -65 -2 -98 1 -49
5 -60 10 -63 25 -7 34 26 47 113 44 l80 -3 3 -31z m1937 1 l0 -30 -95 0 c-83
0 -95 2 -98 18 -8 43 3 48 100 45 l93 -3 0 -30z m-2 -126 c6 -9 7 -24 4 -33
-5 -13 -23 -16 -102 -16 l-95 0 0 29 c0 36 11 40 109 38 56 -2 76 -6 84 -18z
m-1938 -24 l0 -30 -92 -3 c-85 -3 -92 -1 -98 18 -13 40 10 51 104 48 l86 -3 0
-30z m-301 9 c13 -12 16 -41 16 -150 0 -190 -31 -174 340 -174 l300 0 10 -24
c5 -13 6 -33 3 -45 -5 -21 -8 -21 -345 -21 l-340 0 -34 34 -34 34 0 175 c0
174 0 176 23 180 40 8 45 7 61 -9z m2426 -170 l0 -176 -34 -34 -34 -34 -336 0
-336 0 0 33 c0 18 5 38 12 45 9 9 91 12 309 12 296 0 298 0 313 22 13 18 16
52 16 165 l0 143 45 0 45 0 0 -176z m-2222 30 c45 -12 18 -74 -32 -74 -17 0
-56 34 -56 49 0 5 12 14 28 19 34 13 33 13 60 6z m1922 -10 c0 -18 -23 -44
-39 -44 -20 0 -35 25 -25 41 6 10 64 13 64 3z m-1894 -440 c19 -41 34 -79 34
-85 0 -15 -27 -10 -34 6 -3 9 -18 15 -40 15 -19 0 -41 -7 -50 -15 -14 -15 -36
-20 -36 -10 0 30 71 165 87 165 2 0 20 -34 39 -76z m211 54 c21 -17 4 -29 -31
-23 -37 8 -59 -11 -54 -46 5 -32 33 -47 59 -31 16 10 24 11 33 2 14 -15 -27
-50 -59 -50 -30 0 -71 34 -79 65 -18 72 74 130 131 83z m191 6 c34 -23 28 -37
-14 -30 -22 5 -41 3 -50 -5 -17 -14 -18 -51 -2 -67 15 -15 54 -16 63 -2 8 14
25 13 25 -2 0 -22 -33 -48 -62 -48 -86 0 -109 133 -28 163 27 10 45 7 68 -9z
m362 -10 c21 -21 -1 -40 -29 -24 -43 22 -45 3 -3 -23 41 -27 48 -40 36 -71 -9
-24 -69 -31 -99 -12 -48 31 -21 46 38 21 33 -14 18 20 -18 39 -41 23 -47 57
-12 81 24 17 63 13 87 -11z m388 -10 c38 -44 24 -102 -30 -123 -40 -15 -80 1
-102 40 -17 31 -17 38 -5 64 28 59 93 68 137 19z m192 21 c71 -37 66 -120 -9
-146 -56 -20 -111 20 -111 80 0 26 36 69 63 74 12 2 23 5 25 6 2 0 16 -6 32
-14z m215 -5 c18 -15 19 -53 3 -80 -10 -15 -9 -22 5 -38 16 -18 14 -32 -5 -32
-5 0 -22 15 -39 32 -19 21 -29 27 -30 18 -1 -8 -2 -22 -3 -30 0 -8 -9 -16 -18
-18 -14 -3 -17 8 -20 77 -2 48 1 83 7 86 17 8 85 -3 100 -15z m295 0 c0 -17
-7 -20 -40 -20 -29 0 -40 -4 -40 -15 0 -10 11 -15 35 -15 24 0 35 -5 35 -15 0
-10 -11 -15 -35 -15 -24 0 -35 -5 -35 -15 0 -11 11 -15 40 -15 29 0 40 -4 40
-15 0 -16 -1 -16 -70 -19 l-45 -1 -3 77 c-3 86 -4 85 76 87 36 1 42 -2 42 -19z
m149 9 c44 -15 34 -35 -15 -31 -43 4 -42 -1 8 -27 38 -21 49 -60 22 -81 -20
-17 -94 -16 -105 2 -16 25 -9 29 36 22 56 -8 59 7 5 31 -47 21 -54 54 -18 79
27 19 26 19 67 5z m-1409 -18 c0 -17 -5 -19 -35 -14 -28 5 -35 2 -35 -11 0
-10 11 -19 30 -22 17 -4 30 -10 30 -15 0 -5 -13 -9 -30 -9 -20 0 -30 -5 -30
-15 0 -10 11 -15 35 -15 23 0 35 -5 35 -14 0 -10 -16 -15 -54 -18 l-55 -3 -3
78 -3 77 58 0 c50 0 57 -2 57 -19z m349 5 c15 -18 -1 -30 -28 -21 -33 10 -35
-15 -2 -28 35 -13 47 -37 32 -66 -15 -27 -45 -35 -86 -21 -48 16 -48 43 -1 34
54 -10 64 6 17 27 -31 14 -41 24 -41 42 0 12 5 28 12 35 17 17 83 15 97 -2z
m731 -66 c0 -73 -2 -80 -20 -80 -18 0 -20 7 -20 80 0 73 2 80 20 80 18 0 20
-7 20 -80z"/>
<path d="M7671 9157 c-14 -6 -28 -25 -32 -41 -6 -22 -3 -33 16 -52 30 -30 65
-31 93 -1 29 31 28 61 -4 86 -31 24 -40 25 -73 8z"/>
<path d="M7005 9120 c-491 -6 -481 -4 -511 -75 -19 -46 -21 -964 -2 -983 18
-18 42 -15 72 9 l26 20 0 434 c0 398 1 435 18 454 17 22 18 22 448 21 423 0
431 0 457 21 48 37 27 92 -38 101 -16 2 -228 1 -470 -2z"/>
<path d="M7877 9102 c-18 -19 -22 -49 -9 -68 21 -32 53 -34 460 -34 390 0 410
-1 426 -19 16 -17 18 -58 19 -449 l2 -430 24 -26 c28 -29 75 -35 85 -10 8 21
8 496 -1 765 l-6 214 -37 38 -38 37 -454 0 c-428 0 -456 -1 -471 -18z"/>
<path d="M7610 8966 c-19 -7 -63 -31 -97 -52 -123 -77 -685 -516 -753 -588
l-35 -37 -5 -132 -5 -132 -37 -3 c-45 -4 -49 -22 -12 -51 25 -20 39 -21 255
-21 l229 0 0 114 0 113 93 70 c268 202 395 283 445 283 21 0 57 -12 88 -29 63
-36 305 -206 392 -275 l63 -51 -3 -287 -3 -287 -29 -30 c-28 -29 -90 -76 -299
-225 -112 -79 -197 -121 -230 -112 -32 8 -250 153 -402 268 l-110 83 -3 133
-3 132 -222 0 c-122 0 -232 -3 -243 -6 -17 -5 -44 -40 -44 -59 0 -2 17 -5 38
-7 l37 -3 5 -145 c3 -90 10 -153 18 -167 13 -23 200 -177 446 -367 77 -60 164
-128 191 -151 65 -54 190 -137 235 -155 19 -8 57 -14 85 -14 96 0 107 7 422
257 78 61 211 167 296 235 85 67 173 142 196 167 l41 45 0 144 0 144 38 12
c51 17 56 24 31 46 -19 17 -40 19 -209 22 l-188 3 -4 50 -3 49 179 0 c164 0
181 2 212 21 39 24 45 49 12 49 -13 0 -33 3 -45 6 -22 6 -23 10 -23 129 0 111
-2 125 -23 156 -48 71 -684 567 -814 636 -71 36 -138 43 -203 19z m145 -125
c79 -36 665 -488 733 -565 l33 -37 -3 -102 -3 -102 -50 0 -50 0 -3 91 c-3 88
-4 92 -35 121 -78 74 -617 476 -661 492 -41 16 -70 0 -296 -170 -496 -374
-450 -329 -450 -440 l0 -86 -31 -7 c-81 -16 -79 -18 -79 102 0 80 4 113 15
129 19 27 198 171 463 371 308 233 330 243 417 203z m-787 -1191 c4 -112 -11
-93 188 -246 505 -390 513 -395 565 -374 53 22 283 195 608 456 l76 61 3 101
3 102 55 0 55 0 -3 -122 -3 -122 -165 -134 c-302 -244 -544 -427 -597 -452
-55 -26 -79 -25 -131 5 -69 39 -568 420 -704 538 l-58 49 0 120 0 119 53 -3
52 -3 3 -95z"/>
<path d="M6700 8890 c-24 -18 -25 -23 -28 -160 -3 -122 -1 -141 12 -138 18 4
336 295 336 308 0 6 -60 10 -147 10 -130 0 -151 -3 -173 -20z m120 -60 c15
-28 -4 -62 -33 -58 -39 5 -31 78 9 78 7 0 18 -9 24 -20z"/>
<path d="M7302 8898 c-7 -7 -12 -22 -12 -35 0 -19 5 -23 29 -23 21 0 32 6 36
20 12 37 -27 64 -53 38z"/>
<path d="M8360 8898 c0 -12 301 -299 321 -306 5 -2 9 55 9 137 0 188 7 181
-187 181 -108 0 -143 -3 -143 -12z m245 -59 c4 -5 4 -21 1 -35 -5 -20 -12 -25
-34 -22 -30 3 -41 30 -22 53 14 17 46 20 55 4z"/>
<path d="M6974 8737 c-310 -276 -307 -273 -294 -297 24 -44 30 -40 368 259 84
74 152 141 152 148 0 22 -19 53 -33 52 -7 0 -94 -73 -193 -162z"/>
<path d="M8034 8886 c-11 -28 4 -48 33 -44 22 2 28 8 28 28 0 20 -6 26 -28 28
-18 2 -29 -2 -33 -12z"/>
<path d="M8191 8874 l-22 -28 23 -21 c36 -35 387 -347 426 -379 26 -23 38 -27
51 -19 41 26 26 45 -200 248 -122 110 -229 206 -239 213 -15 11 -21 9 -39 -14z"/>
<path d="M7584 8370 c-32 -16 -102 -62 -154 -100 -189 -140 -190 -144 -190
-395 0 -139 4 -194 14 -220 21 -48 95 -119 201 -191 220 -150 252 -148 490 20
93 66 142 113 168 161 20 37 22 54 22 235 0 256 2 252 -211 408 -164 119 -233
136 -340 82z m185 -40 c59 -27 218 -139 264 -187 20 -22 42 -55 47 -74 6 -18
10 -106 10 -194 0 -185 -9 -213 -81 -282 -81 -77 -243 -177 -304 -189 -43 -7
-106 18 -201 82 -105 71 -166 124 -196 172 -22 36 -23 43 -20 222 5 232 4 230
149 340 176 132 238 152 332 110z"/>
<path d="M7649 8240 c-54 -16 -171 -84 -208 -121 -48 -46 -55 -85 -49 -293 l3
-145 33 -34 c34 -35 178 -115 244 -137 36 -11 42 -9 117 31 98 52 172 107 188
139 18 36 18 340 0 383 -20 46 -80 96 -167 139 -83 41 -122 50 -161 38z m76
-91 c22 -11 68 -39 103 -61 l62 -40 0 -165 c0 -159 -1 -166 -22 -184 -45 -37
-166 -109 -184 -109 -11 0 -62 27 -114 59 l-95 57 -3 170 c-2 166 -2 169 20
183 81 51 182 111 187 111 4 0 24 -9 46 -21z"/>
<path d="M7665 8088 c-11 -6 -44 -27 -72 -46 l-53 -34 0 -132 0 -131 71 -43
c38 -23 74 -42 80 -42 12 0 110 69 127 89 13 16 16 130 6 216 -6 44 -11 54
-43 75 -83 54 -95 59 -116 48z"/>
<path d="M6412 8081 c-21 -13 -11 -55 14 -59 27 -4 47 21 39 48 -7 21 -30 26
-53 11z"/>
<path d="M8896 8075 c-8 -22 3 -43 27 -51 27 -9 50 21 36 47 -12 23 -55 25
-63 4z"/>
<path d="M6483 7935 c-47 -33 -19 -115 39 -115 25 0 58 36 58 63 0 51 -56 81
-97 52z"/>
<path d="M8821 7937 c-47 -24 -45 -87 4 -109 22 -10 30 -8 53 9 65 48 15 137
-57 100z"/>
<path d="M6496 7734 c-14 -14 -16 -71 -16 -480 l0 -464 -60 0 c-60 0 -60 0
-60 -30 0 -36 23 -50 79 -50 l41 0 0 -70 0 -69 -57 -3 c-57 -3 -58 -3 -58 -33
0 -30 1 -30 58 -33 l57 -3 0 -57 c0 -64 22 -116 60 -144 23 -17 56 -18 467
-18 493 -1 491 -1 519 65 19 45 20 348 1 385 -7 13 -28 35 -46 47 l-34 23
-428 0 -429 0 0 449 c0 438 0 449 -21 475 -23 29 -50 33 -73 10z m914 -1044
c19 -19 20 -31 18 -153 -3 -129 -4 -132 -28 -145 -20 -10 -105 -12 -403 -10
-361 3 -379 4 -393 22 -10 15 -14 55 -14 163 l0 143 400 0 c389 0 401 -1 420
-20z"/>
<path d="M6702 6588 c-5 -7 -13 -23 -16 -35 -9 -28 24 -63 58 -63 43 0 73 69
44 98 -16 16 -73 15 -86 0z"/>
<path d="M6870 6570 c-14 -33 -5 -51 32 -71 39 -21 85 30 68 75 -8 22 -16 26
-49 26 -33 0 -40 -4 -51 -30z"/>
<path d="M7056 6584 c-3 -9 -6 -28 -6 -44 0 -21 7 -30 30 -40 55 -23 98 27 70
81 -14 25 -85 27 -94 3z"/>
<path d="M7234 6575 c-14 -22 -15 -30 -4 -50 25 -47 80 -44 100 4 16 41 -4 71
-47 71 -24 0 -37 -7 -49 -25z"/>
<path d="M8800 7725 l-24 -26 -1 -449 0 -450 -408 0 c-342 0 -413 -2 -437 -15
-57 -29 -60 -43 -60 -238 0 -199 6 -223 63 -254 29 -16 69 -18 449 -18 406 0
417 1 445 21 42 30 63 80 63 147 l0 57 55 0 c37 0 55 4 55 13 0 6 3 22 6 35 6
21 4 22 -55 22 l-61 0 0 54 c0 30 -3 61 -6 69 -4 11 7 15 50 19 31 3 58 7 60
9 2 2 7 19 11 37 l7 32 -64 0 -63 0 3 459 c3 327 1 465 -7 480 -16 29 -52 27
-81 -4z m-20 -1156 c0 -77 -5 -149 -10 -160 -10 -18 -25 -19 -388 -19 -281 0
-381 3 -390 12 -19 19 -16 257 4 286 l15 22 385 0 384 0 0 -141z"/>
<path d="M8077 6592 c-40 -44 0 -112 57 -98 34 8 51 58 28 85 -25 30 -64 36
-85 13z"/>
<path d="M8270 6603 c-22 -9 -30 -24 -30 -60 0 -34 21 -53 58 -53 41 0 71 73
40 98 -19 14 -51 21 -68 15z"/>
<path d="M8455 6602 c-48 -9 -61 -71 -20 -98 51 -33 112 15 87 70 -11 25 -34
35 -67 28z"/>
<path d="M8601 6584 c-26 -33 -26 -49 -1 -74 24 -24 48 -25 78 -4 40 28 23 87
-29 99 -21 5 -31 1 -48 -21z"/>
<path d="M6686 7345 c-23 -23 -20 -33 16 -63 18 -15 93 -81 167 -147 74 -66
169 -150 210 -187 42 -37 81 -68 87 -68 6 0 19 9 29 20 18 20 18 22 -41 76
-95 90 -424 375 -438 380 -8 3 -21 -2 -30 -11z"/>
<path d="M8458 7188 c-106 -95 -212 -190 -236 -212 -45 -42 -51 -70 -20 -90
14 -8 28 0 80 50 35 33 133 121 218 196 85 74 166 147 179 162 24 25 24 26 6
46 -10 11 -22 20 -26 20 -4 0 -95 -77 -201 -172z"/>
<path d="M6672 7065 c4 -185 0 -181 190 -177 78 1 144 5 147 8 9 9 -312 304
-330 304 -8 0 -10 -41 -7 -135z m149 -61 c17 -21 0 -49 -32 -49 -24 0 -36 23
-25 51 7 19 40 18 57 -2z"/>
<path d="M8535 7071 c-154 -140 -186 -177 -161 -187 9 -3 74 -4 146 -3 170 5
173 7 178 149 4 99 -3 170 -16 170 -4 0 -70 -58 -147 -129z m64 -65 c18 -22
-4 -58 -32 -54 -25 3 -34 32 -17 53 16 19 34 19 49 1z"/>
<path d="M8048 6939 c-24 -14 -23 -46 3 -59 37 -20 67 28 37 58 -14 14 -18 14
-40 1z"/>
<path d="M7292 6923 c-14 -27 -4 -43 29 -43 27 0 30 3 27 28 -4 33 -41 43 -56
15z"/>
<path d="M7661 6651 c-42 -42 -16 -111 42 -111 33 0 67 32 67 63 0 56 -70 87
-109 48z"/>
<path d="M7657 6402 c-22 -25 -21 -75 1 -95 41 -37 112 -6 112 48 0 55 -77 87
-113 47z"/>
<path d="M6567 5953 c-12 -12 -7 -33 8 -33 17 0 19 9 7 28 -5 7 -11 9 -15 5z"/>
<path d="M7770 5970 c-25 -25 -25 -42 -2 -63 26 -24 49 -21 68 8 15 23 15 27
0 50 -20 30 -39 32 -66 5z"/>
<path d="M7997 5984 c-16 -16 -6 -34 19 -34 19 0 25 5 22 17 -3 19 -29 29 -41
17z"/>
<path d="M8300 5970 c0 -14 7 -20 23 -20 30 0 40 10 26 27 -18 20 -49 16 -49
-7z"/>
<path d="M2190 3562 c-49 -5 -97 -44 -110 -90 -13 -49 -13 -665 0 -714 6 -20
24 -48 41 -62 l31 -26 374 0 c408 0 412 0 450 57 18 26 19 51 19 388 0 328 -2
363 -18 388 -36 55 -35 55 -407 59 -190 1 -361 2 -380 0z m50 -100 c0 -22 -30
-52 -52 -52 -26 0 -24 45 3 64 25 17 49 11 49 -12z m638 12 c24 -17 30 -59 8
-67 -29 -11 -72 54 -49 76 9 10 16 9 41 -9z m-139 -32 c11 -22 54 -71 95 -110
l76 -70 0 -146 0 -146 -84 -84 c-46 -45 -87 -93 -91 -105 -6 -20 -11 -21 -193
-21 l-187 0 -34 43 c-19 23 -63 68 -98 100 l-63 59 0 158 0 158 49 36 c56 41
117 106 133 142 l11 24 183 0 184 0 19 -38z m-513 -639 c18 -25 17 -50 -2 -57
-26 -10 -73 41 -59 64 10 16 47 11 61 -7z m674 -6 c0 -29 -34 -62 -55 -54 -20
8 -19 36 2 59 24 26 53 23 53 -5z"/>
<path d="M2458 3376 c-69 -19 -135 -78 -169 -150 -45 -94 -36 -182 26 -268 50
-68 110 -100 201 -106 68 -4 79 -2 139 27 74 37 128 98 146 165 14 50 6 133
-16 179 -20 43 -90 114 -135 137 -49 25 -135 32 -192 16z m160 -95 c46 -23 67
-46 87 -94 38 -90 3 -184 -86 -230 -45 -24 -62 -28 -103 -23 -96 11 -166 87
-166 181 0 45 28 111 56 137 57 51 146 63 212 29z"/>
<path d="M2494 3216 c-41 -18 -74 -62 -74 -98 0 -115 149 -155 210 -56 54 86
-42 195 -136 154z"/>
<path d="M2456 1418 c-45 -26 -86 -94 -86 -142 1 -46 33 -110 70 -136 49 -35
126 -39 178 -10 59 33 85 74 90 140 4 61 -17 104 -70 143 -43 32 -132 34 -182
5z m117 -70 c53 -28 63 -89 22 -128 -35 -33 -81 -31 -112 4 -31 37 -29 71 6
107 32 31 50 35 84 17z"/>
<path d="M2512 1308 c-17 -17 -15 -53 3 -68 34 -28 93 32 65 65 -15 18 -52 19
-68 3z"/>
<path d="M1527 750 c-3 -13 0 -20 9 -20 15 0 19 26 5 34 -5 3 -11 -3 -14 -14z"/>
<path d="M2650 786 c-16 -20 -9 -56 13 -70 39 -24 79 44 41 71 -23 17 -39 16
-54 -1z"/>
<path d="M2878 793 c-25 -6 -30 -33 -13 -59 24 -37 75 -26 75 16 0 15 -31 52
-41 49 -2 -1 -11 -3 -21 -6z"/>
<path d="M3080 780 c0 -23 4 -24 31 -9 23 12 16 29 -12 29 -12 0 -19 -7 -19
-20z"/>
<path d="M1409 9700 l-356 -5 -40 -27 c-22 -14 -48 -43 -59 -65 -18 -37 -19
-89 -19 -1928 l0 -1890 29 -43 c57 -84 -12 -78 991 -87 1298 -11 1838 -12
1947 -4 111 8 143 25 186 99 l27 45 0 1865 c0 1026 -4 1882 -8 1903 -10 49
-67 112 -115 128 -28 10 -294 13 -1132 13 -602 1 -1255 -1 -1451 -4z m1151
-120 c0 -11 -6 -20 -14 -20 -18 0 -29 16 -21 30 11 18 35 11 35 -10z m1365
-1928 l0 -1794 -24 -19 c-23 -18 -59 -19 -1373 -19 -1362 0 -1378 0 -1400 34
-4 6 -8 818 -8 1803 l0 1793 1403 -3 1402 -2 0 -1793z"/>
<path d="M2444 9130 l-81 -68 -17 29 c-41 70 -139 77 -204 16 -17 -16 -25 -18
-34 -9 -14 14 -316 5 -335 -11 -18 -13 -16 -42 3 -61 13 -13 42 -16 159 -16
130 0 144 -2 149 -18 4 -10 24 -36 46 -59 l40 -40 -262 -241 c-145 -133 -282
-255 -305 -272 l-43 -30 0 -408 0 -408 43 -21 c23 -11 96 -71 162 -133 154
-145 395 -382 395 -388 0 -3 -15 -23 -33 -46 -19 -23 -39 -51 -46 -63 -11 -22
-17 -23 -144 -23 -141 0 -177 -10 -177 -50 0 -40 36 -50 177 -50 72 0 143 4
157 10 22 8 30 5 58 -20 59 -54 126 -49 188 15 l33 34 58 -51 c60 -52 89 -58
89 -18 0 27 18 26 22 -2 5 -38 32 -32 93 20 l57 49 32 -34 c33 -36 92 -56 136
-46 14 3 41 18 61 33 25 20 40 25 50 19 8 -5 78 -9 157 -9 129 0 144 2 162 20
24 24 25 43 4 64 -12 13 -41 16 -152 16 l-137 0 -58 70 -57 69 92 88 c51 48
135 129 188 179 182 174 246 229 288 249 28 14 42 26 42 40 2 228 3 401 1 581
l-1 220 -49 35 c-40 28 -286 248 -509 454 l-44 41 46 54 c25 30 46 57 46 62 0
4 60 8 134 8 129 0 136 1 163 24 l28 25 -23 23 c-22 22 -29 23 -190 23 -155 1
-170 2 -202 23 -60 38 -135 23 -171 -34 l-21 -34 -46 37 c-26 20 -60 49 -77
64 -16 14 -37 29 -45 31 -10 4 -47 -20 -96 -62z m215 -147 c89 -85 103 -102
88 -109 -22 -8 -60 10 -136 66 -32 23 -66 40 -81 40 -17 0 -54 -19 -95 -50
-66 -47 -119 -70 -133 -55 -4 4 44 55 106 114 84 79 112 112 113 131 0 25 0
25 16 -5 9 -16 64 -76 122 -132z m-384 52 c31 -31 31 -40 -1 -70 -33 -31 -39
-31 -69 0 -30 29 -31 35 -4 69 26 32 43 33 74 1z m583 9 c24 -17 30 -65 10
-81 -27 -21 -47 -21 -72 -2 -31 25 -32 38 -5 73 24 30 36 32 67 10z m-262
-199 c58 -33 68 -35 152 -35 109 0 74 24 397 -276 88 -82 184 -169 213 -194
l52 -45 0 -346 0 -346 -38 -25 c-20 -14 -117 -100 -214 -192 -98 -91 -182
-166 -188 -166 -5 0 -10 17 -10 39 0 37 7 45 148 177 81 77 166 155 190 173
l42 34 0 309 0 309 -62 57 c-34 31 -146 136 -248 233 l-186 176 -94 5 c-85 5
-100 8 -144 37 -28 17 -59 31 -70 31 -11 0 -44 -14 -75 -32 -50 -28 -67 -32
-151 -36 l-95 -4 -155 -152 c-85 -83 -197 -189 -248 -235 l-92 -85 0 -306 0
-306 88 -78 c48 -44 136 -126 195 -182 l109 -103 -13 -35 -12 -34 -164 151
c-90 84 -188 172 -218 196 l-55 44 0 346 0 346 142 125 c78 69 207 185 287
259 l145 133 58 -5 c73 -6 126 6 186 43 26 16 51 30 56 30 5 0 37 -16 72 -35z
m-22 -167 c21 -30 20 -33 -9 -46 -37 -17 -85 -5 -85 22 0 48 66 65 94 24z
m-224 -59 c9 -17 8 -25 -7 -41 -25 -29 -392 -368 -425 -395 -26 -20 -28 -25
-28 -101 0 -83 -5 -92 -50 -92 -16 0 -19 10 -22 68 -5 112 2 137 47 170 39 28
110 92 265 237 149 140 189 175 199 175 6 0 15 -9 21 -21z m557 -131 c222
-205 277 -254 313 -275 l31 -18 -3 -99 c-3 -100 -3 -100 -28 -100 -45 0 -50
10 -50 93 l0 78 -42 33 c-72 57 -416 381 -422 397 -7 16 10 43 26 43 5 0 84
-69 175 -152z m-337 67 c11 -20 11 -27 0 -40 -20 -24 -64 -15 -68 13 -7 50 45
71 68 27z m-126 -84 c17 -18 16 -21 -26 -58 -24 -22 -89 -82 -146 -134 -137
-125 -159 -142 -172 -134 -27 17 -6 51 88 139 153 145 221 206 230 206 5 0 17
-9 26 -19z m371 -132 c161 -147 187 -181 150 -195 -9 -4 -63 38 -151 118 -74
67 -151 136 -170 151 -19 16 -34 34 -34 41 0 14 20 36 32 36 5 0 83 -68 173
-151z m-224 -39 c10 -6 19 -16 19 -23 0 -9 -21 -11 -75 -9 -70 3 -74 5 -65 23
8 14 22 19 56 19 25 0 54 -5 65 -10z m-9 -100 c52 -15 134 -82 160 -133 30
-58 31 -157 1 -212 -44 -84 -117 -127 -214 -127 -122 0 -214 90 -226 223 -8
78 29 157 94 203 75 53 119 64 185 46z m228 -87 c45 -51 63 -98 62 -165 0 -68
-26 -129 -77 -178 -27 -26 -38 -31 -47 -22 -9 9 -7 17 10 34 64 69 83 196 41
284 -37 79 -39 84 -30 84 5 0 23 -17 41 -37z m-557 -111 c-6 -90 5 -137 48
-196 47 -65 36 -87 -21 -40 -60 51 -95 151 -79 225 10 42 36 89 49 89 5 0 6
-35 3 -78z m857 -11 c17 -33 11 -58 -21 -85 -38 -33 -73 -33 -104 -1 -42 41
-28 96 28 120 27 11 36 11 59 -1 15 -8 32 -23 38 -33z m-1025 14 c32 -31 32
-63 0 -98 -33 -35 -70 -35 -107 0 -35 33 -36 63 -2 97 34 34 77 34 109 1z
m-195 -193 c0 -83 2 -90 23 -99 25 -11 431 -390 441 -412 4 -8 -1 -23 -12 -33
-18 -18 -20 -18 -63 24 -107 105 -400 368 -428 384 -17 10 -32 23 -35 29 -2 6
-1 52 2 103 l5 92 33 0 34 0 0 -88z m1360 -12 c0 -96 -1 -101 -23 -109 -22 -9
-244 -205 -407 -360 -41 -39 -80 -71 -87 -71 -6 0 -15 10 -19 22 -5 18 5 33
57 82 35 34 129 124 209 200 80 76 155 143 168 149 20 9 22 17 22 83 0 94 4
104 46 104 l34 0 0 -100z m-898 -261 c92 -88 175 -159 183 -159 15 0 102 80
333 304 74 71 95 87 102 76 6 -8 10 -22 10 -31 0 -34 -408 -409 -444 -409 -11
0 -38 13 -58 29 -73 55 -387 352 -393 372 -4 11 -1 27 5 35 15 17 17 15 262
-217z m258 98 c0 -34 -106 -50 -134 -21 -26 25 -9 34 65 34 51 0 69 -3 69 -13z
m-40 -117 c23 -42 -30 -81 -60 -45 -7 8 -10 25 -6 40 8 31 50 35 66 5z m-56
-282 l16 -22 23 22 c30 28 53 28 60 1 8 -28 -42 -79 -76 -79 -47 0 -106 68
-80 93 13 14 42 6 57 -15z m-58 -139 l79 -42 69 38 c66 36 73 38 185 42 l116
4 -44 -40 c-43 -41 -44 -41 -125 -41 -72 0 -87 -4 -131 -30 -63 -37 -89 -37
-148 0 -43 27 -56 30 -131 30 -80 0 -84 1 -129 36 -26 20 -47 38 -47 40 0 2
51 4 114 4 l114 0 78 -41z m314 -101 c0 -12 -56 -67 -177 -175 l-63 -55 -121
113 -122 114 37 3 c31 3 44 -4 89 -41 61 -52 88 -67 117 -67 29 0 79 26 115
61 52 49 125 76 125 47z m-489 -109 l22 -31 -20 -26 c-27 -36 -50 -39 -79 -11
-29 28 -30 39 -3 73 27 34 53 33 80 -5z m592 -1 c19 -25 19 -29 4 -51 -22 -34
-52 -39 -82 -15 -31 24 -32 45 -3 75 28 29 55 26 81 -9z"/>
<path d="M2465 8114 c-66 -34 -95 -79 -95 -149 0 -88 42 -144 123 -166 100
-27 207 57 207 161 0 92 -73 170 -159 170 -25 0 -59 -7 -76 -16z"/>
<path d="M3015 7969 c-9 -26 16 -55 40 -45 25 9 16 60 -12 64 -15 2 -23 -3
-28 -19z"/>
<path d="M2004 7976 c-7 -19 13 -56 31 -56 22 0 39 38 24 56 -15 18 -48 18
-55 0z"/>
<path d="M1432 9110 c-96 -60 -66 -209 45 -230 127 -23 213 125 124 213 -40
41 -119 49 -169 17z m100 -62 c9 -7 18 -20 19 -28 4 -20 -10 -60 -21 -60 -5 0
-15 -3 -23 -6 -18 -6 -57 29 -57 51 0 18 35 55 53 55 7 0 20 -6 29 -12z"/>
<path d="M3494 9114 c-83 -41 -85 -175 -2 -220 32 -18 103 -17 138 1 57 29 78
117 43 176 -32 54 -116 75 -179 43z m98 -71 c22 -20 23 -56 2 -77 -19 -20 -34
-20 -62 0 -26 18 -28 50 -5 76 20 22 41 23 65 1z"/>
<path d="M1672 8933 c-6 -16 -12 -37 -14 -48 -4 -26 -93 -54 -178 -54 -70 -1
-90 -11 -90 -47 0 -34 47 -48 145 -42 94 6 151 32 199 89 53 63 44 129 -18
129 -27 0 -36 -5 -44 -27z"/>
<path d="M3290 8940 c-19 -35 -2 -75 54 -128 62 -59 100 -72 207 -72 60 0 82
4 100 19 21 16 22 22 11 45 -11 24 -16 26 -79 27 -38 0 -92 8 -122 17 -49 16
-55 21 -70 62 -15 41 -20 45 -53 48 -29 2 -39 -1 -48 -18z"/>
<path d="M1870 8843 c-290 -267 -331 -303 -349 -303 -24 0 -31 19 -31 86 0 48
-2 54 -24 60 -43 10 -66 -11 -66 -61 0 -38 -3 -44 -22 -47 -32 -4 -38 -66 -8
-93 20 -18 20 -27 20 -552 0 -520 -1 -536 -20 -560 -11 -14 -20 -41 -20 -59 0
-30 3 -34 25 -34 23 0 25 -4 25 -45 0 -42 1 -44 34 -51 19 -3 39 -3 45 1 6 3
11 40 11 84 0 75 1 79 24 83 31 6 48 -4 110 -66 149 -148 370 -351 386 -354
10 -2 27 9 39 24 l22 28 -38 39 c-21 21 -129 124 -240 229 -197 184 -204 189
-253 195 l-50 6 2 496 3 496 42 6 c23 3 50 12 60 20 28 22 330 296 403 366
l65 63 -28 25 c-15 14 -33 25 -40 24 -7 0 -64 -48 -127 -106z"/>
<path d="M3022 8927 c-12 -13 -22 -27 -22 -30 0 -4 17 -22 37 -40 75 -64 339
-310 365 -340 44 -49 79 -67 131 -67 l47 0 0 -500 0 -500 -29 0 c-77 0 -88 -8
-320 -228 -124 -118 -230 -222 -234 -229 -10 -17 27 -63 50 -63 8 0 110 93
229 207 118 114 222 211 232 214 9 4 27 3 40 -2 20 -8 22 -15 22 -89 l0 -80
29 0 c52 0 61 9 61 55 0 34 4 44 20 48 24 6 27 49 5 87 -22 38 -21 1096 0
1124 23 30 20 87 -4 93 -15 4 -21 15 -23 46 -3 46 -23 63 -61 53 -26 -6 -27
-9 -27 -71 0 -35 -5 -67 -11 -70 -19 -12 -53 4 -94 42 -137 132 -397 363 -408
363 -8 0 -23 -10 -35 -23z"/>
<path d="M1202 7954 c-41 -28 -19 -94 32 -94 28 0 56 29 56 58 0 20 -33 52
-55 52 -6 0 -21 -7 -33 -16z"/>
<path d="M3782 7954 c-45 -31 -13 -99 44 -92 36 4 58 42 42 72 -21 39 -49 46
-86 20z"/>
<path d="M1435 7134 c-22 -6 -45 -31 -45 -50 0 -31 31 -44 108 -44 42 0 94 -3
114 -6 34 -6 39 -11 53 -55 17 -50 38 -66 76 -54 30 10 42 49 25 88 -14 35
-75 93 -112 107 -28 11 -191 21 -219 14z"/>
<path d="M3435 7131 c-53 -9 -75 -22 -118 -71 -30 -32 -37 -48 -37 -80 0 -43
18 -60 64 -60 29 0 38 11 46 59 6 42 28 50 163 60 72 5 91 10 103 25 19 27 18
31 -12 55 -22 17 -40 21 -98 20 -39 -1 -89 -5 -111 -8z"/>
<path d="M1417 6950 c-106 -92 1 -265 136 -221 96 32 120 143 48 220 -26 28
-35 31 -90 31 -53 0 -65 -4 -94 -30z m121 -56 c26 -18 28 -50 5 -76 -20 -22
-42 -23 -71 -2 -27 19 -28 48 -2 74 24 24 38 25 68 4z"/>
<path d="M3478 6957 c-36 -30 -48 -58 -48 -111 0 -57 35 -101 92 -116 105 -29
197 65 162 166 -20 59 -57 84 -124 84 -42 0 -61 -5 -82 -23z m114 -64 c22 -20
23 -51 1 -75 -20 -22 -41 -23 -65 -1 -22 20 -23 56 -2 77 20 21 43 20 66 -1z"/>
<path d="M1410 6475 c0 -68 2 -75 20 -75 13 0 20 7 20 20 0 25 16 26 29 1 10
-19 45 -34 55 -23 4 3 -2 14 -11 25 -17 18 -17 19 0 28 20 12 23 69 5 87 -7 7
-36 12 -65 12 l-53 0 0 -75z m88 23 c5 -26 -34 -23 -41 3 -4 16 -1 20 16 17
12 -2 23 -11 25 -20z"/>
<path d="M1590 6475 c0 -68 2 -75 20 -75 13 0 20 7 20 20 0 14 7 20 21 20 39
0 59 19 59 55 0 41 -20 55 -79 55 l-41 0 0 -75z m78 22 c2 -12 -3 -17 -17 -17
-15 0 -21 6 -21 21 0 25 33 22 38 -4z"/>
<path d="M1845 6495 c-35 -78 -41 -105 -22 -105 8 0 17 4 19 10 6 18 64 23 81
6 19 -20 37 -21 37 -2 0 30 -59 146 -75 146 -10 0 -26 -21 -40 -55z m50 -32
c5 -17 2 -23 -9 -23 -11 0 -16 10 -16 32 0 34 13 29 25 -9z"/>
<path d="M2017 6530 c-45 -35 -33 -111 20 -131 33 -12 79 -3 87 18 9 22 3 25
-28 13 -22 -8 -30 -6 -46 10 -24 24 -25 43 -4 64 18 19 45 21 62 4 16 -16 29
-1 16 20 -17 26 -75 27 -107 2z"/>
<path d="M2190 6532 c-30 -24 -32 -96 -4 -117 30 -22 63 -27 91 -13 40 20 43
42 4 33 -50 -11 -73 1 -69 37 4 40 30 58 59 40 30 -19 53 3 25 24 -27 20 -79
18 -106 -4z"/>
<path d="M2348 6478 c2 -40 5 -74 6 -75 0 -1 23 -3 51 -4 41 -3 50 0 53 14 3
14 -4 17 -37 17 -30 0 -41 4 -41 15 0 10 11 15 35 15 24 0 35 5 35 15 0 10
-10 15 -30 15 -21 0 -30 5 -30 16 0 13 8 15 35 12 29 -3 35 -1 35 14 0 15 -9
18 -59 18 l-58 0 5 -72z"/>
<path d="M2516 6534 c-30 -29 -20 -53 31 -75 34 -14 43 -23 34 -29 -8 -4 -27
-3 -43 2 -32 11 -43 6 -35 -16 15 -38 110 -26 120 15 6 23 -15 47 -49 55 -13
3 -24 12 -24 20 0 17 31 19 47 3 8 -8 13 -7 18 2 20 32 -70 53 -99 23z"/>
<path d="M2678 6539 c-10 -5 -18 -21 -18 -34 0 -19 9 -29 37 -42 46 -23 57
-47 16 -37 -44 10 -48 10 -48 -6 0 -8 12 -19 27 -24 37 -13 88 9 88 39 0 25
-29 55 -53 55 -9 0 -17 7 -17 16 0 13 7 15 30 11 22 -5 30 -3 30 7 0 25 -59
35 -92 15z"/>
<path d="M2836 6529 c-18 -15 -26 -30 -26 -53 0 -71 92 -106 146 -55 74 69
-39 172 -120 108z m98 -41 c17 -28 -4 -53 -45 -53 -28 0 -35 4 -37 23 -2 13
-1 30 2 38 8 21 66 14 80 -8z"/>
<path d="M3020 6475 c0 -68 2 -75 20 -75 18 0 20 7 20 75 0 68 -2 75 -20 75
-18 0 -20 -7 -20 -75z"/>
<path d="M3100 6491 c0 -73 6 -91 32 -91 15 0 18 5 13 20 -9 28 11 25 37 -5
12 -14 30 -25 40 -25 20 0 24 15 7 25 -7 5 -8 25 -4 55 9 62 -8 80 -76 80
l-49 0 0 -59z m84 13 c9 -25 7 -34 -9 -34 -12 0 -35 28 -35 44 0 14 38 5 44
-10z"/>
<path d="M3280 6470 c0 -73 2 -80 20 -80 18 0 20 7 20 80 0 73 -2 80 -20 80
-18 0 -20 -7 -20 -80z"/>
<path d="M3364 6504 c3 -26 6 -61 6 -79 0 -32 1 -33 43 -30 23 1 48 3 55 4 23
2 13 33 -10 31 -36 -3 -48 -1 -48 10 0 6 14 10 31 10 24 0 30 4 27 18 -2 10
-11 16 -23 15 -11 -2 -27 2 -35 7 -12 8 -13 11 -1 19 16 10 53 3 63 -13 4 -6
8 4 8 22 l0 32 -61 0 -62 0 7 -46z"/>
<path d="M3532 6538 c-7 -7 -12 -24 -12 -39 0 -22 6 -29 29 -34 16 -3 36 -13
43 -22 12 -15 9 -16 -29 -11 -33 5 -43 3 -43 -8 0 -14 38 -34 65 -34 7 0 23 8
35 18 33 27 21 67 -25 82 -45 15 -46 33 -1 25 39 -8 57 9 27 24 -26 15 -74 14
-89 -1z"/>
<path d="M4446 8865 c-25 -194 -33 -796 -26 -1865 l6 -765 37 -110 c21 -60 40
-116 43 -124 6 -19 24 -2 40 41 55 147 68 195 81 303 8 66 15 132 16 148 2 22
6 27 29 27 20 0 29 6 33 23 25 105 34 613 12 677 -10 31 -17 35 -49 38 l-37 3
-1 487 c-1 734 -23 1142 -65 1236 -14 30 -14 28 -9 -34 3 -36 10 -100 15 -144
7 -55 7 -82 0 -89 -6 -6 -12 -9 -13 -6 -1 2 -6 69 -12 149 -9 119 -14 145 -27
148 -14 3 -16 -17 -13 -183 l3 -185 -35 0 c-36 0 -36 0 -30 38 17 113 27 234
24 282 -2 45 -6 29 -22 -95z m138 -181 c10 -27 7 -44 -9 -44 -10 0 -15 10 -15
30 0 32 14 40 24 14z m-84 -1081 c3 -3 5 -40 5 -84 0 -43 3 -79 8 -79 4 0 7
-6 7 -14 0 -16 -21 -26 -54 -26 -23 0 -22 -8 -16 218 0 4 43 -9 50 -15z m107
-110 c-2 -16 -4 -5 -4 22 0 28 2 40 4 28 2 -13 2 -35 0 -50z m-24 5 c-8 -72
-13 -73 -13 -5 0 32 4 57 10 57 5 0 7 -22 3 -52z m22 -88 c3 -5 -3 -10 -14
-10 -12 0 -21 5 -21 10 0 6 6 10 14 10 8 0 18 -4 21 -10z m102 -337 c-2 -21
-4 -4 -4 37 0 41 2 58 4 38 2 -21 2 -55 0 -75z m-197 -919 c0 -87 -13 -90 -31
-7 -6 32 -14 63 -16 70 -3 9 4 13 21 13 26 0 26 -1 26 -76z"/>
<path d="M443 8970 c18 -109 20 -153 6 -148 -8 2 -15 18 -17 34 -9 111 -14
134 -28 134 -13 0 -15 -26 -10 -190 l5 -190 -38 0 -39 0 5 48 c2 26 6 65 9 87
2 22 7 74 9 115 l5 75 -16 -90 c-8 -49 -17 -104 -20 -122 -4 -26 -10 -32 -32
-35 -23 -3 -28 -9 -36 -48 -5 -25 -9 -202 -9 -395 1 -357 13 -524 40 -533 10
-3 13 80 13 388 0 215 3 397 7 405 5 7 6 -154 5 -358 -2 -205 -1 -414 3 -464
l7 -93 41 0 c51 0 70 -11 61 -33 -9 -24 -89 -24 -103 1 -7 11 -9 -166 -7 -563
4 -586 7 -654 46 -830 21 -97 53 -196 63 -192 24 8 68 213 89 407 18 173 17
2189 -1 2330 -21 163 -42 275 -53 285 -7 7 -9 -1 -5 -25z m23 -237 c1 -32 5
-74 9 -92 6 -28 4 -32 -10 -29 -14 2 -18 19 -22 97 -4 75 -2 92 9 89 9 -3 13
-24 14 -65z m28 -1168 c3 -8 3 -15 0 -15 -3 0 -12 7 -20 15 -13 13 -13 15 -1
15 8 0 17 -7 21 -15z m-111 -1232 c7 -12 20 -289 13 -282 -13 13 -58 274 -49
283 9 8 31 7 36 -1z m76 -88 c-15 -159 -29 -187 -23 -45 3 77 10 127 17 132 6
4 12 6 13 5 1 -1 -2 -42 -7 -92z"/>
<path d="M6318 4080 c-68 -20 -118 -72 -138 -141 -6 -19 -10 -78 -10 -131 l0
-98 180 0 180 0 0 190 0 190 -92 -1 c-51 0 -105 -4 -120 -9z m104 -157 c22
-20 23 -61 1 -85 -34 -38 -103 -11 -103 40 0 54 62 81 102 45z"/>
<path d="M6595 4079 c-4 -5 -5 -102 -3 -214 1 -112 -1 -207 -5 -212 -5 -4
-101 -8 -213 -8 l-204 0 0 -533 c0 -294 3 -532 8 -530 4 2 37 20 75 42 58 33
70 36 85 25 62 -48 112 -92 112 -99 0 -5 -27 -31 -60 -59 l-61 -50 -67 34
c-37 19 -73 35 -79 35 -10 0 -13 -111 -13 -520 l0 -520 198 0 c108 0 203 -4
210 -9 11 -7 14 -54 13 -230 l-2 -222 83 3 83 3 0 240 c0 270 -2 277 -78 339
l-39 31 -154 3 -154 3 0 318 0 318 115 46 c63 26 121 47 130 47 13 0 15 -27
16 -195 1 -107 3 -199 4 -205 1 -5 3 -12 4 -14 0 -3 17 2 36 10 82 34 156 5
248 -97 105 -117 127 -178 89 -249 -23 -41 -82 -75 -117 -66 -33 8 -32 32 1
40 37 10 74 50 74 82 0 54 -78 124 -138 124 -34 0 -92 -57 -92 -90 0 -10 22
-41 48 -67 26 -26 57 -69 69 -94 27 -58 37 -65 98 -74 88 -11 152 30 181 118
14 43 18 47 31 34 17 -17 20 -47 10 -99 l-8 -38 130 0 129 0 26 -31 c25 -29
26 -36 26 -155 l0 -124 -315 0 -315 0 0 -75 0 -75 415 0 415 0 0 39 c0 22 -6
46 -12 53 -7 8 -26 29 -43 46 l-29 32 58 59 59 60 58 -52 c33 -28 59 -56 59
-61 0 -5 -18 -28 -40 -52 -33 -36 -40 -51 -40 -84 l0 -40 415 0 415 0 0 75 0
75 -312 2 -313 3 0 133 c0 173 -1 171 167 172 64 0 119 3 121 8 3 4 1 32 -5
62 -8 47 -7 56 8 67 15 11 20 7 40 -42 40 -99 68 -115 186 -108 l77 6 18 49
c9 27 39 73 66 103 l49 55 -26 45 c-48 80 -94 87 -163 21 -70 -66 -62 -121 24
-161 32 -16 34 -18 19 -33 -14 -15 -20 -15 -58 -2 -78 27 -111 117 -72 193 31
60 143 175 197 201 58 30 84 32 132 12 l35 -15 0 211 0 211 30 -6 c16 -4 71
-22 123 -42 52 -19 100 -35 106 -35 8 0 11 -93 11 -324 l0 -324 -142 -4 c-163
-3 -188 -12 -236 -83 l-27 -40 -3 -247 -3 -248 80 0 81 0 0 214 c0 184 2 217
16 231 14 14 42 15 200 13 l184 -3 0 523 0 523 -22 -7 c-13 -3 -48 -19 -78
-34 -50 -24 -56 -25 -70 -11 -9 9 -36 33 -60 54 l-45 37 35 30 c19 17 49 42
67 56 l32 26 64 -36 c35 -20 67 -36 70 -36 4 0 7 239 7 530 l0 530 -200 0
-200 0 0 220 0 220 -81 0 -80 0 3 -244 3 -244 31 -39 c16 -21 50 -48 74 -60
39 -20 59 -23 172 -23 l128 0 -2 -327 -3 -326 -103 -39 c-56 -21 -116 -41
-132 -45 l-30 -5 0 221 c0 207 -1 222 -17 217 -99 -29 -148 -13 -234 75 -94
96 -129 152 -129 207 0 60 45 107 113 117 60 9 61 29 5 55 -93 42 -176 17
-214 -64 -13 -28 -24 -57 -24 -64 0 -8 -8 -12 -17 -10 -20 4 -23 47 -9 106 l8
32 -122 0 c-121 0 -122 0 -151 29 -29 29 -29 31 -29 145 l0 116 313 2 312 3 0
80 0 80 -412 1 -413 1 0 -27 c0 -17 14 -43 40 -73 22 -25 40 -49 40 -54 0 -5
-26 -34 -58 -66 l-58 -57 -58 59 c-65 66 -65 56 -4 129 16 18 28 45 28 60 l0
28 -412 -1 -413 0 -3 -83 -3 -83 303 1 c167 0 309 0 316 0 9 0 12 -29 12 -113
0 -112 0 -114 -29 -141 -27 -26 -34 -27 -155 -33 -123 -6 -127 -7 -122 -27 17
-71 17 -93 2 -106 -9 -7 -18 -11 -19 -9 -1 2 -14 30 -29 61 -35 73 -65 93
-138 92 -75 0 -114 -23 -145 -83 -13 -27 -45 -67 -71 -89 -43 -36 -45 -41 -34
-63 22 -43 63 -79 89 -79 33 0 96 45 122 87 29 46 19 77 -35 111 -66 42 -35
73 36 36 110 -57 94 -155 -46 -302 -42 -44 -90 -85 -106 -92 -30 -12 -121 -10
-152 4 -17 8 -18 -6 -18 -208 0 -194 -2 -216 -16 -216 -19 0 -225 69 -236 79
-4 4 -8 150 -8 326 l-1 320 143 5 c154 5 179 13 230 67 47 50 51 73 56 316 l4
227 -80 0 c-46 0 -84 -5 -87 -11z m1118 -407 c74 -50 150 -89 248 -126 178
-68 313 -159 431 -292 119 -134 170 -229 214 -403 32 -127 31 -145 -11 -192
-54 -60 -48 -130 18 -221 17 -24 16 -29 -8 -124 -73 -292 -278 -537 -565 -675
-187 -91 -260 -129 -311 -166 -26 -18 -49 -33 -53 -33 -4 0 -50 28 -104 62
-53 34 -140 81 -192 103 -197 86 -270 136 -401 272 -136 142 -207 268 -251
447 l-21 85 36 40 c25 28 38 53 42 85 10 62 0 93 -42 135 -35 35 -35 37 -30
98 9 91 60 234 119 332 36 60 86 120 163 197 121 122 209 181 350 235 92 36
290 136 306 156 15 17 14 17 62 -15z m-866 -223 c3 -30 -52 -78 -69 -61 -8 8
-3 22 17 52 31 44 49 47 52 9z m-157 -862 c13 -24 13 -30 0 -54 -32 -56 -112
-55 -139 2 -12 25 -12 32 0 54 33 58 106 56 139 -2z m2077 21 c46 -43 16 -118
-47 -118 -39 0 -70 31 -70 72 0 64 69 91 117 46z m-1936 -889 c31 -22 37 -50
16 -68 -11 -8 -22 -2 -51 29 -52 57 -28 84 35 39z m1729 -3 c-1 -18 -47 -66
-65 -66 -23 0 -18 34 9 63 24 26 56 28 56 3z"/>
<path d="M7600 3555 c-36 -24 -88 -61 -116 -83 -28 -21 -74 -47 -103 -57 -225
-74 -444 -305 -520 -546 -45 -143 -51 -363 -14 -519 36 -154 129 -305 266
-437 101 -96 227 -172 322 -193 29 -7 55 -20 67 -35 17 -22 138 -112 164 -122
14 -5 194 112 194 126 0 5 17 15 38 22 295 96 545 373 606 671 20 97 21 318 2
409 -60 280 -308 558 -566 635 -26 8 -55 23 -65 34 -11 12 -56 44 -102 71 -45
28 -85 54 -88 60 -9 13 -13 11 -85 -36z m114 -177 c3 -29 6 -171 6 -315 0
-229 2 -263 15 -263 36 0 155 -100 155 -130 0 -6 89 -10 229 -10 126 0 236 -3
245 -6 10 -4 16 -18 16 -35 l0 -29 -275 0 c-219 0 -275 -3 -275 -13 0 -20 22
-37 48 -37 20 0 22 -4 17 -22 -24 -79 -74 -135 -139 -159 l-36 -13 0 -166 c0
-92 -3 -228 -7 -303 l-6 -137 -32 0 c-21 0 -35 6 -39 16 -3 9 -6 145 -6 303
l0 287 -36 13 c-47 17 -101 65 -125 112 -25 49 -24 65 4 73 47 12 65 6 88 -30
44 -72 118 -93 180 -51 68 45 84 127 37 186 -27 36 -56 50 -101 51 -59 0 -94
-23 -120 -82 l-13 -27 -269 -5 c-149 -3 -281 -7 -295 -8 -21 -3 -26 2 -28 25
-7 56 -1 57 259 57 l238 0 15 29 c22 42 94 100 133 107 l33 6 0 298 c0 164 3
305 6 314 4 10 18 16 39 16 31 0 32 -1 39 -52z m-243 -125 c15 -48 25 -61 51
-65 44 -6 26 -26 -52 -58 -45 -17 -83 -30 -85 -28 -2 2 -18 32 -34 68 l-31 65
57 27 c32 15 63 27 70 28 6 0 17 -17 24 -37z m490 15 c32 -13 59 -27 58 -33 0
-5 -14 -40 -32 -77 l-32 -66 -74 36 c-78 39 -100 62 -58 62 29 0 40 12 56 63
7 20 15 37 18 37 3 0 32 -10 64 -22z m-698 -157 c26 -32 47 -63 47 -67 -1 -5
-16 -26 -34 -47 l-34 -38 -48 39 c-27 22 -58 49 -69 61 l-20 23 50 43 c28 25
52 44 55 45 3 0 26 -27 53 -59z m967 -31 c0 -5 -28 -33 -62 -64 l-63 -56 -37
41 -37 41 51 64 51 63 49 -40 c26 -23 48 -45 48 -49z m-670 -15 c0 -27 -5 -37
-22 -44 -81 -31 -110 -47 -134 -72 -35 -37 -28 -36 47 2 112 56 109 56 109 0
0 -47 -2 -50 -32 -60 -18 -6 -46 -22 -63 -35 l-29 -23 -62 46 c-35 25 -63 51
-63 56 -2 33 85 100 183 142 67 28 66 28 66 -12z m334 -6 c35 -17 86 -50 112
-73 l47 -42 -68 -56 -68 -55 -58 36 -58 36 -1 93 c0 108 -1 107 94 61z m-779
-138 c38 -16 71 -34 73 -39 3 -11 -35 -112 -50 -130 -8 -9 -14 -9 -24 -1 -8 6
-12 15 -9 19 8 12 -36 40 -61 40 -47 0 -54 8 -39 48 12 35 37 92 39 92 1 0 33
-13 71 -29z m1204 -19 c38 -75 37 -79 -19 -92 -40 -9 -51 -17 -56 -36 -12 -46
-38 -28 -65 45 l-26 69 38 12 c21 7 50 21 65 31 33 21 39 19 63 -29z m-994
-68 c48 -32 55 -41 55 -70 0 -39 -10 -47 -45 -38 -15 4 -25 13 -25 24 0 28
-18 34 -22 8 -3 -25 -26 -33 -64 -24 -21 6 -23 11 -18 34 10 40 43 102 54 102
6 0 35 -16 65 -36z m793 -3 c12 -21 22 -50 22 -65 0 -24 -4 -26 -40 -26 -38 0
-41 2 -47 33 l-7 32 -7 -30 c-5 -18 -4 -32 2 -36 12 -7 -13 -19 -40 -19 -18 0
-45 56 -35 72 8 13 107 77 120 77 6 1 20 -16 32 -38z m-412 -236 c7 -27 -9
-55 -31 -55 -22 0 -38 28 -31 55 5 18 13 25 31 25 18 0 26 -7 31 -25z m-423
-142 c23 -62 43 -72 22 -12 -22 61 -20 69 18 69 31 0 33 -3 50 -61 10 -34 14
-65 10 -70 -4 -4 -35 -21 -68 -38 l-60 -30 -27 57 c-14 31 -29 76 -33 100 l-7
43 37 -3 c36 -3 39 -6 58 -55z m865 5 c-5 -29 -18 -73 -29 -97 -21 -49 -22
-49 -107 2 -29 17 -50 37 -48 43 3 7 10 30 17 53 8 29 18 41 31 41 14 0 18 -8
18 -40 0 -51 13 -51 32 -1 13 33 21 40 49 44 19 2 37 5 40 5 4 1 2 -22 -3 -50z
m-1003 5 c4 -21 18 -65 31 -97 19 -46 21 -62 12 -68 -23 -14 -140 -48 -148
-43 -10 6 -40 93 -40 117 0 12 7 18 24 18 14 0 36 4 50 10 23 8 26 15 26 55 0
37 3 45 19 45 14 0 21 -10 26 -37z m1107 -10 l3 -48 44 -7 c24 -4 45 -9 47
-11 6 -6 -24 -101 -38 -120 -12 -16 -17 -16 -80 9 -38 14 -68 31 -68 38 0 7 7
32 15 57 7 24 19 63 25 87 8 31 16 42 30 42 15 0 19 -9 22 -47z m-259 -160
c31 -21 57 -42 57 -49 0 -22 -120 -125 -175 -149 -31 -14 -60 -25 -65 -25 -6
0 -10 15 -10 34 0 32 3 34 59 55 58 21 91 52 91 86 0 10 5 13 13 9 6 -4 9 -4
5 1 -4 4 -3 14 3 22 20 24 -7 14 -31 -12 -28 -30 -112 -85 -128 -85 -7 0 -12
15 -12 35 0 29 5 36 34 50 18 9 44 27 57 41 12 13 27 24 33 24 6 0 37 -17 69
-37z m-525 -2 c20 -17 49 -33 65 -36 24 -7 27 -11 27 -52 0 -24 -3 -42 -7 -40
-5 2 -26 12 -48 21 -22 10 -52 24 -67 31 -16 8 -28 10 -28 5 0 -13 58 -54 107
-76 35 -16 43 -24 43 -48 0 -26 -2 -28 -27 -21 -72 17 -228 131 -228 165 0 9
103 79 118 80 5 0 25 -13 45 -29z m-159 -166 c0 -5 -23 -34 -53 -63 l-53 -54
-46 46 c-26 25 -47 50 -47 55 0 6 24 28 54 50 30 23 58 46 62 52 5 8 20 -3 45
-32 21 -24 38 -48 38 -54z m861 48 c33 -27 60 -56 60 -65 0 -15 -75 -88 -90
-88 -8 0 -100 106 -100 116 0 6 61 81 68 83 1 1 30 -20 62 -46z m-698 -135
c73 -30 102 -58 60 -58 -23 0 -45 -24 -62 -70 -7 -19 -14 -36 -16 -38 -5 -8
-134 54 -134 65 0 13 62 133 69 133 2 0 40 -14 83 -32z m527 -27 c17 -32 31
-64 31 -70 0 -12 -100 -61 -124 -61 -8 0 -19 19 -25 45 -6 25 -17 46 -24 47
-6 0 -19 1 -27 2 -8 1 -16 8 -18 16 -2 11 19 25 70 47 40 17 76 31 79 32 3 0
20 -26 38 -58z"/>
<path d="M7812 3009 c5 -14 129 -81 136 -74 3 3 -1 5 -9 5 -12 0 -12 2 0 9 11
7 9 12 -10 22 -13 7 -39 21 -57 31 -37 20 -66 24 -60 7z"/>
<path d="M8810 3900 l0 -190 170 0 170 0 0 118 c-1 209 -50 262 -245 262 l-95
0 0 -190z m185 15 c30 -29 31 -35 4 -69 -25 -31 -61 -34 -89 -6 -27 27 -25 55
6 79 34 27 50 26 79 -4z"/>
<path d="M6820 3760 l0 -40 283 2 282 3 3 38 3 37 -285 0 -286 0 0 -40z"/>
<path d="M7962 3763 l3 -38 278 -3 277 -2 0 40 0 40 -281 0 -280 0 3 -37z"/>
<path d="M8475 3538 c-82 -45 -86 -91 -15 -160 53 -51 80 -59 118 -32 24 16
52 64 52 88 0 19 -100 116 -120 115 -8 0 -24 -5 -35 -11z m59 -89 c28 -33 31
-44 16 -54 -25 -15 -77 41 -66 71 8 21 22 17 50 -17z"/>
<path d="M6603 3433 c-21 -4 -23 -10 -23 -74 0 -80 16 -119 55 -137 45 -21 89
-14 136 20 l43 31 -49 13 c-57 14 -87 46 -105 111 -7 23 -18 42 -24 42 -6 -1
-21 -4 -33 -6z"/>
<path d="M8666 3409 c-10 -49 -52 -105 -97 -127 -44 -22 -40 -30 25 -57 42
-18 102 -8 128 22 17 19 31 152 19 171 -4 7 -21 14 -38 18 -28 5 -31 4 -37
-27z"/>
<path d="M6440 3132 l0 -289 25 -11 c14 -7 30 -12 35 -12 6 0 10 117 10 300
l0 300 -35 0 -35 0 0 -288z"/>
<path d="M8820 3116 l0 -306 33 13 32 13 0 290 0 289 -32 3 -33 3 0 -305z"/>
<path d="M6462 2270 l-22 -9 2 -283 3 -283 33 -3 32 -3 0 295 c0 315 2 305
-48 286z"/>
<path d="M8820 1986 l0 -294 33 3 32 2 3 282 2 281 -25 10 c-15 6 -31 10 -36
10 -5 0 -9 -118 -9 -294z"/>
<path d="M6645 1901 c-47 -20 -60 -49 -60 -131 0 -43 2 -81 5 -83 3 -3 15 -7
28 -9 20 -3 26 4 41 50 23 66 53 99 108 115 45 13 45 21 3 50 -26 18 -91 22
-125 8z"/>
<path d="M8563 1888 c-39 -27 -40 -34 -10 -43 47 -15 95 -77 121 -158 4 -14
12 -16 33 -11 40 10 44 21 40 103 -4 69 -7 77 -36 103 -40 36 -101 38 -148 6z"/>
<path d="M6170 1310 c0 -119 15 -183 52 -226 47 -53 64 -59 191 -64 l117 -5 0
193 0 192 -180 0 -180 0 0 -90z m244 -31 c31 -25 33 -57 6 -87 -26 -27 -54
-28 -80 -2 -28 28 -25 64 6 89 15 12 30 21 34 21 4 0 19 -9 34 -21z"/>
<path d="M8810 1210 l0 -190 100 0 c117 0 151 11 198 64 37 42 42 69 45 214
l2 102 -172 0 -173 0 0 -190z m176 72 c6 -4 17 -18 24 -31 10 -20 9 -27 -7
-50 -11 -14 -29 -27 -40 -29 -25 -4 -73 34 -73 59 0 41 62 74 96 51z"/>
<path d="M6822 1338 l3 -43 65 0 c36 0 163 1 283 3 l217 2 0 40 0 40 -286 0
-285 0 3 -42z"/>
<path d="M7967 1373 c-4 -3 -7 -21 -7 -40 l0 -33 240 -2 c132 -1 257 -2 278
-2 37 -1 37 -1 40 42 l3 42 -274 0 c-150 0 -277 -3 -280 -7z"/>
<path d="M6310 806 c0 -52 4 -97 9 -100 19 -12 41 7 41 35 0 38 24 38 42 2 9
-19 22 -29 41 -31 30 -4 35 9 12 28 -8 7 -15 18 -15 25 0 7 7 18 15 25 8 7 15
27 15 46 0 46 -29 64 -102 64 l-58 0 0 -94z m105 29 c0 -14 -8 -21 -27 -23
-22 -3 -28 1 -28 16 0 25 10 33 35 30 12 -2 20 -10 20 -23z"/>
<path d="M6528 805 l-3 -95 28 0 c23 0 27 4 27 30 0 28 3 30 35 30 67 0 98 65
52 108 -18 17 -36 22 -79 22 l-57 0 -3 -95z m102 40 c16 -19 5 -35 -24 -35
-17 0 -25 7 -28 25 -4 21 -1 25 17 25 12 0 28 -7 35 -15z"/>
<path d="M6875 838 c-15 -35 -34 -78 -41 -95 l-14 -33 30 0 c20 0 30 5 30 15
0 11 11 15 40 15 27 0 43 -5 46 -15 4 -8 17 -15 31 -15 29 0 28 7 -23 118 -43
94 -61 96 -99 10z m59 -34 c8 -31 5 -37 -18 -28 -10 4 -15 13 -12 21 3 8 6 19
6 24 0 20 18 7 24 -17z"/>
<path d="M7093 881 c-52 -33 -56 -112 -6 -151 27 -21 96 -27 121 -11 18 11 10
47 -9 42 -47 -13 -58 -12 -78 8 -27 27 -27 45 0 72 20 20 24 20 80 3 24 -8 33
26 12 42 -26 19 -83 17 -120 -5z"/>
<path d="M7299 871 c-23 -23 -29 -38 -29 -71 0 -58 33 -90 93 -90 46 0 86 28
72 49 -8 14 -35 14 -35 1 0 -17 -46 -11 -63 8 -23 25 -21 55 3 77 17 15 24 16
49 5 45 -18 67 3 35 34 -9 9 -32 16 -55 16 -31 0 -47 -7 -70 -29z"/>
<path d="M7490 805 l0 -95 70 0 c63 0 70 2 70 20 0 17 -7 20 -45 20 -39 0 -45
3 -45 21 0 18 5 20 27 16 36 -7 53 1 53 24 0 16 -8 19 -45 19 -34 0 -45 4 -45
16 0 12 10 15 48 13 42 -3 47 -1 50 19 3 21 0 22 -67 22 l-71 0 0 -95z"/>
<path d="M7696 878 c-27 -39 -20 -63 24 -83 22 -10 46 -25 53 -33 10 -13 7
-15 -23 -10 -19 4 -42 8 -50 10 -9 2 -16 -6 -18 -19 -4 -24 19 -35 74 -35 45
0 64 17 64 57 0 36 -23 61 -59 67 -14 1 -26 9 -29 17 -4 11 5 12 42 7 35 -6
46 -4 46 6 0 25 -23 38 -66 38 -33 0 -47 -5 -58 -22z"/>
<path d="M7897 882 c-10 -10 -17 -31 -17 -45 0 -27 21 -42 83 -61 9 -3 17 -10
17 -17 0 -7 -15 -9 -49 -4 -39 5 -49 3 -54 -9 -15 -38 98 -51 133 -16 11 11
20 26 20 34 0 25 -35 57 -68 64 -46 10 -40 27 10 27 48 0 60 17 23 33 -38 17
-80 15 -98 -6z"/>
<path d="M8178 884 c-89 -48 -49 -174 55 -174 39 0 49 5 76 35 33 38 38 63 20
98 -28 54 -94 72 -151 41z m76 -30 c30 -11 38 -41 21 -74 -19 -37 -57 -40 -79
-8 -21 30 -20 44 4 68 21 21 29 23 54 14z"/>
<path d="M8390 800 c0 -99 0 -101 23 -98 17 2 23 11 25 36 4 39 21 38 40 -1
10 -21 20 -27 44 -27 30 0 30 0 14 25 -18 27 -21 52 -6 57 17 6 22 62 7 82
-11 15 -30 21 -81 24 l-66 4 0 -102z m100 44 c11 -12 11 -18 -1 -29 -19 -19
-59 -8 -59 15 0 30 40 39 60 14z"/>
<path d="M8600 806 c0 -95 0 -96 24 -96 22 0 25 5 31 53 4 28 5 70 3 92 -3 35
-6 40 -30 43 l-28 3 0 -95z"/>
<path d="M8710 805 l0 -95 65 0 c58 0 65 2 65 20 0 17 -7 20 -40 20 -29 0 -40
4 -40 15 0 11 11 15 40 15 36 0 40 3 40 24 0 22 -3 24 -40 19 -32 -4 -40 -2
-40 10 0 17 43 31 71 22 15 -5 19 -1 19 19 0 25 -2 26 -70 26 l-70 0 0 -95z"/>
<path d="M8917 882 c-10 -10 -17 -32 -17 -49 0 -33 29 -53 76 -53 16 0 24 -5
21 -12 -2 -8 -22 -13 -49 -13 -55 0 -70 -11 -44 -31 21 -15 93 -19 112 -6 52
35 21 112 -45 112 -13 0 -21 6 -21 16 0 14 7 15 39 10 46 -7 65 9 36 31 -27
19 -89 17 -108 -5z"/>
</g>
</svg>
